<svg width="23" height="23" viewBox="0 0 23 23" fill="none" xmlns="http://www.w3.org/2000/svg">
<circle cx="11.5674" cy="11.1797" r="11" fill="#13163A"/>
<path fill-rule="evenodd" clip-rule="evenodd" d="M14.3742 5.17773L8.08215 10.988L8.2593 11.1798L8.08215 11.3716L14.3742 17.1819L15.0526 16.4472L9.34843 11.1798L15.0526 5.91241L14.3742 5.17773Z" fill="white"/>
<path d="M8.08215 10.988L7.91255 10.8043L7.72888 10.9739L7.89848 11.1576L8.08215 10.988ZM14.3742 5.17773L14.5579 5.00813L14.3882 4.82446L14.2046 4.99407L14.3742 5.17773ZM8.2593 11.1798L8.44297 11.3494L8.59958 11.1798L8.44297 11.0102L8.2593 11.1798ZM8.08215 11.3716L7.89848 11.202L7.72888 11.3857L7.91255 11.5553L8.08215 11.3716ZM14.3742 17.1819L14.2046 17.3655L14.3882 17.5351L14.5579 17.3515L14.3742 17.1819ZM15.0526 16.4472L15.2363 16.6168L15.4059 16.4331L15.2222 16.2635L15.0526 16.4472ZM9.34843 11.1798L9.17882 10.9961L8.97992 11.1798L9.17882 11.3635L9.34843 11.1798ZM15.0526 5.91241L15.2222 6.09608L15.4059 5.92647L15.2363 5.7428L15.0526 5.91241ZM8.25176 11.1716L14.5438 5.3614L14.2046 4.99407L7.91255 10.8043L8.25176 11.1716ZM8.44297 11.0102L8.26582 10.8184L7.89848 11.1576L8.07563 11.3494L8.44297 11.0102ZM8.07563 11.0102L7.89848 11.202L8.26582 11.5412L8.44297 11.3494L8.07563 11.0102ZM7.91255 11.5553L14.2046 17.3655L14.5438 16.9982L8.25176 11.188L7.91255 11.5553ZM14.5579 17.3515L15.2363 16.6168L14.8689 16.2776L14.1905 17.0123L14.5579 17.3515ZM15.2222 16.2635L9.51803 10.9961L9.17882 11.3635L14.883 16.6309L15.2222 16.2635ZM14.883 5.72874L9.17882 10.9961L9.51803 11.3635L15.2222 6.09608L14.883 5.72874ZM14.1905 5.34734L14.8689 6.08201L15.2363 5.7428L14.5579 5.00813L14.1905 5.34734Z" fill="white"/>
</svg>
