<svg width="23" height="23" viewBox="0 0 23 23" fill="none" xmlns="http://www.w3.org/2000/svg">
<circle cx="11.2943" cy="11.6504" r="11" fill="#13163A"/>
<path fill-rule="evenodd" clip-rule="evenodd" d="M14.1011 5.64844L7.80902 11.4587L7.98617 11.6505L7.80902 11.8423L14.1011 17.6526L14.7795 16.9179L9.07529 11.6505L14.7795 6.38311L14.1011 5.64844Z" fill="#5F5F5F"/>
<path d="M7.80902 11.4587L7.63942 11.275L7.45575 11.4446L7.62535 11.6283L7.80902 11.4587ZM14.1011 5.64844L14.2847 5.47883L14.1151 5.29516L13.9314 5.46477L14.1011 5.64844ZM7.98617 11.6505L8.16983 11.8201L8.32645 11.6505L8.16983 11.4809L7.98617 11.6505ZM7.80902 11.8423L7.62535 11.6727L7.45575 11.8564L7.63942 12.026L7.80902 11.8423ZM14.1011 17.6526L13.9314 17.8362L14.1151 18.0059L14.2847 17.8222L14.1011 17.6526ZM14.7795 16.9179L14.9631 17.0875L15.1327 16.9038L14.9491 16.7342L14.7795 16.9179ZM9.07529 11.6505L8.90569 11.4668L8.70679 11.6505L8.90569 11.8342L9.07529 11.6505ZM14.7795 6.38311L14.9491 6.56678L15.1327 6.39718L14.9631 6.21351L14.7795 6.38311ZM7.97863 11.6423L14.2707 5.83211L13.9314 5.46477L7.63942 11.275L7.97863 11.6423ZM8.16983 11.4809L7.99269 11.2891L7.62535 11.6283L7.8025 11.8201L8.16983 11.4809ZM7.8025 11.4809L7.62535 11.6727L7.99269 12.0119L8.16983 11.8201L7.8025 11.4809ZM7.63942 12.026L13.9314 17.8362L14.2707 17.4689L7.97863 11.6587L7.63942 12.026ZM14.2847 17.8222L14.9631 17.0875L14.5958 16.7483L13.9174 17.483L14.2847 17.8222ZM14.9491 16.7342L9.2449 11.4668L8.90569 11.8342L14.6099 17.1016L14.9491 16.7342ZM14.6099 6.19944L8.90569 11.4668L9.2449 11.8342L14.9491 6.56678L14.6099 6.19944ZM13.9174 5.81804L14.5958 6.55272L14.9631 6.21351L14.2847 5.47883L13.9174 5.81804Z" fill="#5F5F5F"/>
</svg>
