<svg width="21" height="21" viewBox="0 0 21 21" fill="none" xmlns="http://www.w3.org/2000/svg">
<circle cx="10.6595" cy="10.6504" r="10" fill="#13163A"/>
<path fill-rule="evenodd" clip-rule="evenodd" d="M13.1802 5.16113L7.46021 10.4432L7.65211 10.651L7.46021 10.8588L13.1802 16.1408L13.8587 15.4062L8.70917 10.651L13.8587 5.89581L13.1802 5.16113Z" fill="#5F5F5F"/>
<path d="M7.46021 10.4432L7.2906 10.2595L7.10693 10.4291L7.27654 10.6128L7.46021 10.4432ZM13.1802 5.16113L13.3639 4.99153L13.1943 4.80786L13.0106 4.97746L13.1802 5.16113ZM7.65211 10.651L7.83578 10.8206L7.9924 10.651L7.83578 10.4814L7.65211 10.651ZM7.46021 10.8588L7.27654 10.6892L7.10693 10.8729L7.2906 11.0425L7.46021 10.8588ZM13.1802 16.1408L13.0106 16.3245L13.1943 16.4941L13.3639 16.3104L13.1802 16.1408ZM13.8587 15.4062L14.0423 15.5758L14.2119 15.3921L14.0283 15.2225L13.8587 15.4062ZM8.70917 10.651L8.53956 10.4673L8.34066 10.651L8.53956 10.8347L8.70917 10.651ZM13.8587 5.89581L14.0283 6.07948L14.2119 5.90987L14.0423 5.7262L13.8587 5.89581ZM7.62981 10.6268L13.3498 5.3448L13.0106 4.97746L7.2906 10.2595L7.62981 10.6268ZM7.83578 10.4814L7.64387 10.2736L7.27654 10.6128L7.46844 10.8206L7.83578 10.4814ZM7.46844 10.4814L7.27654 10.6892L7.64387 11.0284L7.83578 10.8206L7.46844 10.4814ZM7.2906 11.0425L13.0106 16.3245L13.3498 15.9572L7.62981 10.6751L7.2906 11.0425ZM13.3639 16.3104L14.0423 15.5758L13.675 15.2366L12.9966 15.9712L13.3639 16.3104ZM14.0283 15.2225L8.87877 10.4673L8.53956 10.8347L13.689 15.5898L14.0283 15.2225ZM13.689 5.71214L8.53956 10.4673L8.87877 10.8347L14.0283 6.07948L13.689 5.71214ZM12.9966 5.33074L13.675 6.06541L14.0423 5.7262L13.3639 4.99153L12.9966 5.33074Z" fill="#5F5F5F"/>
</svg>
