<svg width="20" height="21" viewBox="0 0 20 21" fill="none" xmlns="http://www.w3.org/2000/svg">
<circle cx="10" cy="10.1797" r="10" fill="#13163A"/>
<path fill-rule="evenodd" clip-rule="evenodd" d="M12.5207 4.69043L6.80072 9.97246L6.99263 10.1803L6.80072 10.3881L12.5207 15.6701L13.1992 14.9355L8.04968 10.1803L13.1992 5.4251L12.5207 4.69043Z" fill="white"/>
<path d="M6.80072 9.97246L6.63112 9.78879L6.44745 9.9584L6.61705 10.1421L6.80072 9.97246ZM12.5207 4.69043L12.7044 4.52082L12.5348 4.33716L12.3511 4.50676L12.5207 4.69043ZM6.99263 10.1803L7.17629 10.3499L7.33291 10.1803L7.17629 10.0107L6.99263 10.1803ZM6.80072 10.3881L6.61705 10.2185L6.44745 10.4022L6.63112 10.5718L6.80072 10.3881ZM12.5207 15.6701L12.3511 15.8538L12.5348 16.0234L12.7044 15.8397L12.5207 15.6701ZM13.1992 14.9355L13.3828 15.1051L13.5524 14.9214L13.3688 14.7518L13.1992 14.9355ZM8.04968 10.1803L7.88008 9.99661L7.68118 10.1803L7.88008 10.364L8.04968 10.1803ZM13.1992 5.4251L13.3688 5.60877L13.5524 5.43917L13.3828 5.2555L13.1992 5.4251ZM6.97033 10.1561L12.6904 4.8741L12.3511 4.50676L6.63112 9.78879L6.97033 10.1561ZM7.17629 10.0107L6.98439 9.80286L6.61705 10.1421L6.80896 10.3499L7.17629 10.0107ZM6.80896 10.0107L6.61705 10.2185L6.98439 10.5577L7.17629 10.3499L6.80896 10.0107ZM6.63112 10.5718L12.3511 15.8538L12.6904 15.4865L6.97033 10.2044L6.63112 10.5718ZM12.7044 15.8397L13.3828 15.1051L13.0155 14.7659L12.3371 15.5005L12.7044 15.8397ZM13.3688 14.7518L8.21929 9.99661L7.88008 10.364L13.0296 15.1191L13.3688 14.7518ZM13.0296 5.24144L7.88008 9.99661L8.21929 10.364L13.3688 5.60877L13.0296 5.24144ZM12.3371 4.86003L13.0155 5.59471L13.3828 5.2555L12.7044 4.52082L12.3371 4.86003Z" fill="white"/>
</svg>
