<svg width="23" height="23" viewBox="0 0 23 23" fill="none" xmlns="http://www.w3.org/2000/svg">
<circle cx="11.2942" cy="11.6504" r="11" transform="rotate(180 11.2942 11.6504)" fill="#13163A"/>
<path fill-rule="evenodd" clip-rule="evenodd" d="M8.48751 17.6523L14.7795 11.8421L14.6024 11.6503L14.7795 11.4584L8.48751 5.6482L7.80909 6.38288L13.5133 11.6503L7.80909 16.9177L8.48751 17.6523Z" fill="#5F5F5F"/>
<path d="M14.7795 11.8421L14.9491 12.0258L15.1328 11.8562L14.9632 11.6725L14.7795 11.8421ZM8.48751 17.6523L8.30384 17.8219L8.47344 18.0056L8.65711 17.836L8.48751 17.6523ZM14.6024 11.6503L14.4187 11.4807L14.2621 11.6503L14.4187 11.8199L14.6024 11.6503ZM14.7795 11.4584L14.9632 11.628L15.1328 11.4444L14.9491 11.2748L14.7795 11.4584ZM8.48751 5.6482L8.65711 5.46454L8.47344 5.29493L8.30384 5.4786L8.48751 5.6482ZM7.80909 6.38288L7.62542 6.21327L7.45582 6.39694L7.63948 6.56655L7.80909 6.38288ZM13.5133 11.6503L13.6829 11.8339L13.8818 11.6503L13.6829 11.4666L13.5133 11.6503ZM7.80909 16.9177L7.63948 16.734L7.45582 16.9036L7.62542 17.0873L7.80909 16.9177ZM14.6099 11.6584L8.3179 17.4687L8.65711 17.836L14.9491 12.0258L14.6099 11.6584ZM14.4187 11.8199L14.5959 12.0117L14.9632 11.6725L14.7861 11.4807L14.4187 11.8199ZM14.7861 11.8199L14.9632 11.628L14.5959 11.2888L14.4187 11.4807L14.7861 11.8199ZM14.9491 11.2748L8.65711 5.46454L8.3179 5.83187L14.6099 11.6421L14.9491 11.2748ZM8.30384 5.4786L7.62542 6.21327L7.99276 6.55248L8.67118 5.81781L8.30384 5.4786ZM7.63948 6.56655L13.3437 11.8339L13.6829 11.4666L7.97869 6.19921L7.63948 6.56655ZM7.97869 17.1013L13.6829 11.8339L13.3437 11.4666L7.63948 16.734L7.97869 17.1013ZM8.67118 17.4827L7.99276 16.7481L7.62542 17.0873L8.30384 17.8219L8.67118 17.4827Z" fill="#5F5F5F"/>
</svg>
