<svg width="21" height="21" viewBox="0 0 21 21" fill="none" xmlns="http://www.w3.org/2000/svg">
<circle cx="10.6595" cy="10.6504" r="10" transform="rotate(180 10.6595 10.6504)" fill="#13163A"/>
<path fill-rule="evenodd" clip-rule="evenodd" d="M8.13873 16.1396L13.8588 10.8576L13.6669 10.6498L13.8588 10.442L8.13873 5.15995L7.46032 5.89462L12.6098 10.6498L7.46032 15.405L8.13873 16.1396Z" fill="#5F5F5F"/>
<path d="M13.8588 10.8576L14.0284 11.0413L14.212 10.8717L14.0424 10.688L13.8588 10.8576ZM8.13873 16.1396L7.95507 16.3093L8.12467 16.4929L8.30834 16.3233L8.13873 16.1396ZM13.6669 10.6498L13.4832 10.4802L13.3266 10.6498L13.4832 10.8194L13.6669 10.6498ZM13.8588 10.442L14.0424 10.6116L14.212 10.4279L14.0284 10.2583L13.8588 10.442ZM8.13873 5.15995L8.30834 4.97628L8.12467 4.80667L7.95507 4.99034L8.13873 5.15995ZM7.46032 5.89462L7.27665 5.72502L7.10704 5.90868L7.29071 6.07829L7.46032 5.89462ZM12.6098 10.6498L12.7794 10.8335L12.9783 10.6498L12.7794 10.4661L12.6098 10.6498ZM7.46032 15.405L7.29071 15.2213L7.10704 15.3909L7.27665 15.5746L7.46032 15.405ZM13.6892 10.6739L7.96913 15.956L8.30834 16.3233L14.0284 11.0413L13.6892 10.6739ZM13.4832 10.8194L13.6751 11.0272L14.0424 10.688L13.8505 10.4802L13.4832 10.8194ZM13.8505 10.8194L14.0424 10.6116L13.6751 10.2724L13.4832 10.4802L13.8505 10.8194ZM14.0284 10.2583L8.30834 4.97628L7.96913 5.34361L13.6892 10.6256L14.0284 10.2583ZM7.95507 4.99034L7.27665 5.72502L7.64398 6.06423L8.3224 5.32955L7.95507 4.99034ZM7.29071 6.07829L12.4402 10.8335L12.7794 10.4661L7.62992 5.71095L7.29071 6.07829ZM7.62992 15.5886L12.7794 10.8335L12.4402 10.4661L7.29071 15.2213L7.62992 15.5886ZM8.3224 15.97L7.64398 15.2354L7.27665 15.5746L7.95507 16.3093L8.3224 15.97Z" fill="#5F5F5F"/>
</svg>
