<svg width="20" height="21" viewBox="0 0 20 21" fill="none" xmlns="http://www.w3.org/2000/svg">
<circle cx="10" cy="10.1797" r="10" transform="rotate(180 10 10.1797)" fill="#13163A"/>
<path fill-rule="evenodd" clip-rule="evenodd" d="M7.47925 15.6689L13.1993 10.3869L13.0074 10.1791L13.1993 9.97127L7.47925 4.68924L6.80083 5.42392L11.9503 10.1791L6.80083 14.9343L7.47925 15.6689Z" fill="white"/>
<path d="M13.1993 10.3869L13.3689 10.5706L13.5526 10.401L13.3829 10.2173L13.1993 10.3869ZM7.47925 15.6689L7.29558 15.8386L7.46519 16.0222L7.64885 15.8526L7.47925 15.6689ZM13.0074 10.1791L12.8237 10.0095L12.6671 10.1791L12.8237 10.3487L13.0074 10.1791ZM13.1993 9.97127L13.3829 10.1409L13.5526 9.95721L13.3689 9.78761L13.1993 9.97127ZM7.47925 4.68924L7.64885 4.50557L7.46519 4.33597L7.29558 4.51964L7.47925 4.68924ZM6.80083 5.42392L6.61716 5.25431L6.44756 5.43798L6.63123 5.60759L6.80083 5.42392ZM11.9503 10.1791L12.1199 10.3628L12.3188 10.1791L12.1199 9.99542L11.9503 10.1791ZM6.80083 14.9343L6.63123 14.7506L6.44756 14.9202L6.61716 15.1039L6.80083 14.9343ZM13.0297 10.2032L7.30964 15.4853L7.64885 15.8526L13.3689 10.5706L13.0297 10.2032ZM12.8237 10.3487L13.0156 10.5565L13.3829 10.2173L13.191 10.0095L12.8237 10.3487ZM13.191 10.3487L13.3829 10.1409L13.0156 9.80167L12.8237 10.0095L13.191 10.3487ZM13.3689 9.78761L7.64885 4.50557L7.30964 4.87291L13.0297 10.1549L13.3689 9.78761ZM7.29558 4.51964L6.61716 5.25431L6.9845 5.59352L7.66292 4.85885L7.29558 4.51964ZM6.63123 5.60759L11.7807 10.3628L12.1199 9.99542L6.97044 5.24025L6.63123 5.60759ZM6.97044 15.1179L12.1199 10.3628L11.7807 9.99542L6.63123 14.7506L6.97044 15.1179ZM7.66292 15.4993L6.9845 14.7647L6.61716 15.1039L7.29558 15.8386L7.66292 15.4993Z" fill="white"/>
</svg>
