<svg width="23" height="23" viewBox="0 0 23 23" fill="none" xmlns="http://www.w3.org/2000/svg">
<circle cx="11.5674" cy="11.1797" r="11" transform="rotate(180 11.5674 11.1797)" fill="#13163A"/>
<path fill-rule="evenodd" clip-rule="evenodd" d="M8.76064 17.1816L15.0527 11.3714L14.8755 11.1796L15.0527 10.9877L8.76064 5.1775L8.08222 5.91218L13.7864 11.1796L8.08222 16.447L8.76064 17.1816Z" fill="white"/>
<path d="M15.0527 11.3714L15.2223 11.5551L15.4059 11.3855L15.2363 11.2018L15.0527 11.3714ZM8.76064 17.1816L8.57697 17.3512L8.74658 17.5349L8.93025 17.3653L8.76064 17.1816ZM14.8755 11.1796L14.6919 11.01L14.5352 11.1796L14.6919 11.3492L14.8755 11.1796ZM15.0527 10.9877L15.2363 11.1573L15.4059 10.9737L15.2223 10.8041L15.0527 10.9877ZM8.76064 5.1775L8.93024 4.99383L8.74658 4.82423L8.57697 5.0079L8.76064 5.1775ZM8.08222 5.91218L7.89855 5.74257L7.72895 5.92624L7.91262 6.09584L8.08222 5.91218ZM13.7864 11.1796L13.956 11.3632L14.1549 11.1796L13.956 10.9959L13.7864 11.1796ZM8.08222 16.447L7.91262 16.2633L7.72895 16.4329L7.89855 16.6166L8.08222 16.447ZM14.8831 11.1877L8.59104 16.998L8.93025 17.3653L15.2223 11.5551L14.8831 11.1877ZM14.6919 11.3492L14.869 11.541L15.2363 11.2018L15.0592 11.01L14.6919 11.3492ZM15.0592 11.3492L15.2363 11.1573L14.869 10.8181L14.6919 11.01L15.0592 11.3492ZM15.2223 10.8041L8.93024 4.99383L8.59104 5.36117L14.8831 11.1714L15.2223 10.8041ZM8.57697 5.0079L7.89855 5.74257L8.26589 6.08178L8.94431 5.34711L8.57697 5.0079ZM7.91262 6.09584L13.6168 11.3632L13.956 10.9959L8.25183 5.72851L7.91262 6.09584ZM8.25183 16.6306L13.956 11.3632L13.6168 10.9959L7.91262 16.2633L8.25183 16.6306ZM8.94431 17.012L8.26589 16.2774L7.89855 16.6166L8.57697 17.3512L8.94431 17.012Z" fill="white"/>
</svg>
