<svg width="21" height="21" viewBox="0 0 21 21" fill="none" xmlns="http://www.w3.org/2000/svg">
<path d="M6.30404 18.8706L4.87237 20.2977L5.22536 20.6518L4.87237 20.2977C4.80233 20.3675 4.67107 20.3864 4.56199 20.2917C4.49012 20.213 4.49204 20.074 4.56776 19.9986L5.99943 18.5714C6.078 18.4931 6.22547 18.4931 6.30404 18.5714C6.38173 18.6489 6.38173 18.7932 6.30404 18.8706Z" stroke="white"/>
<path d="M4.47292 16.7667C4.55061 16.8442 4.55061 16.9885 4.47292 17.0659L2.19909 19.3326C2.12052 19.4109 1.97305 19.4109 1.89448 19.3326C1.81679 19.2551 1.81679 19.1108 1.89448 19.0334L4.16831 16.7667C4.24688 16.6884 4.39435 16.6884 4.47292 16.7667Z" stroke="white"/>
<path d="M2.64074 14.9406C2.71843 15.018 2.71843 15.1623 2.64074 15.2397L1.20907 16.6669L1.53849 16.9974L1.20907 16.6669C1.1305 16.7452 0.983029 16.7452 0.904461 16.6669L0.572273 17.0001L0.904461 16.6669C0.826768 16.5894 0.826768 16.4452 0.904461 16.3677L2.33613 14.9406C2.4147 14.8623 2.56217 14.8623 2.64074 14.9406Z" stroke="white"/>
<path d="M9.10567 16.353L8.76324 15.873L8.34564 16.2893L7.71402 16.9189L8.06701 17.273L7.71402 16.9189C7.68625 16.9466 7.61488 16.9673 7.54593 16.9082L4.3027 13.717C4.24609 13.6498 4.26679 13.5822 4.29343 13.5556L4.92504 12.926L5.3391 12.5132L4.86712 12.1682C3.88086 11.4473 2.80687 10.8792 1.64667 10.4645C1.50335 10.412 1.48392 10.2572 1.55676 10.1749L1.55679 10.175L1.56104 10.17L3.75065 7.63056L3.75066 7.63057L3.75262 7.62826C4.56622 6.67305 5.88416 6.31389 7.07551 6.74574L7.07545 6.74591L7.08824 6.75017L7.46721 6.87609L7.75964 6.97326L7.97787 6.75571L11.0307 3.71255C12.2117 2.53532 13.7633 1.8126 15.4083 1.69547L15.4083 1.69548L15.4114 1.69524L18.926 1.42251C18.9262 1.42249 18.9265 1.42248 18.9267 1.42246C19.4652 1.38257 19.9037 1.82277 19.864 2.35496C19.864 2.35514 19.864 2.35532 19.8639 2.3555L19.5906 5.85625C19.5905 5.85663 19.5905 5.85701 19.5905 5.8574C19.4526 7.5037 18.745 9.04996 17.5673 10.224L14.5145 13.2671L14.2648 13.516L14.4153 13.8347L14.5741 14.1712C14.9937 15.3293 14.6344 16.6513 13.6812 17.458L13.6805 17.4587L11.1227 19.6322C11.0011 19.7204 10.8533 19.6646 10.8087 19.5522C10.3921 18.417 9.80234 17.3296 9.10567 16.353ZM11.7143 5.96354C10.7182 6.95644 10.7182 8.55412 11.7143 9.54703C12.7095 10.5391 14.3095 10.5391 15.3047 9.54703C16.3007 8.55412 16.3007 6.95644 15.3047 5.96354C14.3095 4.9715 12.7095 4.9715 11.7143 5.96354Z" fill="white" stroke="white"/>
</svg>
