<svg width="23" height="21" viewBox="0 0 23 21" fill="none" xmlns="http://www.w3.org/2000/svg">
<path d="M0.346191 6.65891C0.346191 6.58841 0.346191 6.5226 0.346191 6.4521C0.407489 6.27349 0.515937 6.14188 0.690398 6.05728C4.24563 4.33229 7.79615 2.6073 11.3514 0.872913C11.5636 0.769508 11.7522 0.764807 11.9644 0.868213C15.4819 2.5838 19.0041 4.28999 22.5263 6.00088C22.7338 6.09958 22.913 6.22179 22.9837 6.4521C22.9837 6.5226 22.9837 6.58841 22.9837 6.65891C22.9177 6.87512 22.7574 6.99733 22.5593 7.09603C21.7483 7.48615 20.942 7.88097 20.1357 8.27109C19.8811 8.398 19.6218 8.5202 19.353 8.65181C19.4002 8.67531 19.4332 8.69411 19.4709 8.71291C20.4941 9.21114 21.5126 9.70936 22.5357 10.2029C22.7385 10.3016 22.913 10.4191 22.9884 10.6447C22.9884 10.7152 22.9884 10.781 22.9884 10.8515C22.9271 11.0724 22.7762 11.1993 22.5735 11.2933C21.7672 11.6788 20.9656 12.0736 20.1593 12.4637C19.8953 12.5906 19.6312 12.7222 19.353 12.8585C19.4049 12.8867 19.4426 12.9055 19.4756 12.9243C20.5035 13.4226 21.5314 13.9255 22.5593 14.4237C22.7574 14.5177 22.9177 14.6399 22.9837 14.8608C22.9837 14.9313 22.9837 14.9971 22.9837 15.0676C22.9177 15.2838 22.7574 15.4061 22.5593 15.5048C21.522 16.003 20.4847 16.5106 19.452 17.0135C16.9671 18.2215 14.4775 19.4295 11.9926 20.6468C11.7757 20.7549 11.5824 20.7596 11.3561 20.6468C7.82915 18.9312 4.30221 17.2156 0.775271 15.5048C0.577234 15.4061 0.416919 15.2838 0.350907 15.0676C0.350907 14.9971 0.350907 14.9313 0.350907 14.8608C0.416919 14.6446 0.577234 14.5177 0.775271 14.4237C1.60514 14.0289 2.42558 13.6247 3.25073 13.2251C3.4912 13.1076 3.73168 12.9901 3.9863 12.8679C3.93443 12.8444 3.90142 12.8256 3.86842 12.8068C2.84523 12.3086 1.82675 11.8104 0.803562 11.3168C0.60081 11.2181 0.426349 11.1006 0.350907 10.8797C0.350907 10.8045 0.350907 10.7246 0.350907 10.6494C0.426349 10.4238 0.60081 10.3063 0.803562 10.2123C1.82675 9.71877 2.84523 9.22054 3.86842 8.72231C3.90142 8.70351 3.93915 8.68471 3.98158 8.66121C3.92972 8.63301 3.89671 8.61891 3.85899 8.60011C2.83108 8.10188 1.80318 7.59896 0.770556 7.10073C0.572519 7.00203 0.416919 6.87512 0.346191 6.65891ZM21.2627 6.5602C21.2202 6.5367 21.1966 6.5226 21.1684 6.5085C18.0375 4.98562 14.9113 3.46745 11.7805 1.93987C11.6909 1.89286 11.6201 1.90227 11.5353 1.94457C8.48928 3.42514 5.44328 4.91042 2.39729 6.391C2.28884 6.4427 2.1851 6.4991 2.06251 6.5555C2.11438 6.5837 2.14738 6.59781 2.18039 6.61661C5.30654 8.13478 8.4327 9.65766 11.5541 11.1758C11.6249 11.2134 11.6814 11.2134 11.7569 11.1758C14.7274 9.72817 17.7027 8.28049 20.678 6.83752C20.8713 6.74821 21.0599 6.65891 21.2627 6.5602ZM2.06251 10.7575C2.13324 10.7951 2.18039 10.8186 2.22754 10.8421C5.3254 12.3509 8.42327 13.855 11.5211 15.3638C11.6249 15.4155 11.7097 15.4202 11.8088 15.3591C11.8983 15.3074 11.9926 15.265 12.0869 15.2227C15.1141 13.7516 18.1365 12.2804 21.1636 10.8092C21.1919 10.7951 21.2202 10.7763 21.2579 10.7575C21.2108 10.734 21.1778 10.7152 21.1495 10.7011C20.2017 10.2405 19.2493 9.77987 18.3015 9.31454C18.1931 9.26284 18.1082 9.25814 17.995 9.31454C15.9958 10.2922 13.9872 11.2651 11.9879 12.2428C11.771 12.3509 11.5777 12.3556 11.3514 12.2428C9.33801 11.2557 7.3152 10.2781 5.30183 9.29574C5.21695 9.25344 5.15566 9.25344 5.07078 9.29574C4.46724 9.59656 3.85427 9.88797 3.24602 10.1841C2.85937 10.3674 2.47273 10.5554 2.06251 10.7575ZM21.2579 14.9642C21.2296 14.9454 21.2202 14.936 21.2061 14.9313C20.2112 14.4472 19.2163 13.9631 18.2214 13.4837C18.1789 13.4649 18.1082 13.4649 18.0611 13.4884C17.8159 13.6012 17.5754 13.7234 17.3349 13.8409C15.5573 14.7057 13.7844 15.5659 12.0115 16.4354C11.771 16.5529 11.5683 16.5576 11.3231 16.4354C9.31443 15.4484 7.29634 14.4754 5.28297 13.4978C5.21695 13.4649 5.16037 13.4555 5.08965 13.4931C4.11832 13.9678 3.14228 14.4425 2.16624 14.9172C2.13324 14.9313 2.10495 14.9501 2.06251 14.9736C2.11909 15.0018 2.15681 15.0253 2.19925 15.0441C5.30654 16.5529 8.40912 18.0617 11.5117 19.5752C11.6154 19.6269 11.6956 19.6269 11.7993 19.5752C14.5247 18.245 17.25 16.9242 19.9754 15.5988C20.4045 15.3826 20.8241 15.1757 21.2579 14.9642Z" fill="#5C6096"/>
</svg>
