<svg width="22" height="21" viewBox="0 0 22 21" fill="none" xmlns="http://www.w3.org/2000/svg">
<path d="M17.8811 3.39648V0.883984C17.8811 0.85637 17.8587 0.833984 17.8311 0.833984H1.2436C1.21599 0.833984 1.1936 0.85637 1.1936 0.883984V17.659C1.1936 17.6866 1.21599 17.709 1.2436 17.709H3.6311M3.6311 17.709V20.159C3.6311 20.1866 3.65349 20.209 3.6811 20.209H20.4561C20.4837 20.209 20.5061 20.1866 20.5061 20.159V3.44648C20.5061 3.41887 20.4837 3.39648 20.4561 3.39648H3.6811C3.65349 3.39648 3.6311 3.41887 3.6311 3.44648V17.709Z" stroke="white"/>
<path fill-rule="evenodd" clip-rule="evenodd" d="M16.6892 7V7.58303V13.2705V14.333H16.6388C16.6412 14.3705 16.6423 14.4083 16.6423 14.4463C16.6423 15.4387 15.8378 16.2432 14.8455 16.2432C13.8531 16.2432 13.0486 15.4387 13.0486 14.4463C13.0486 13.4539 13.8531 12.6494 14.8455 12.6494C15.1504 12.6494 15.4376 12.7254 15.6892 12.8594V8.16605L10.408 8.98057V14.4268V14.9981C10.4351 15.1223 10.4495 15.2514 10.4495 15.3838C10.4495 16.3762 9.64497 17.1807 8.65259 17.1807C7.6602 17.1807 6.85571 16.3762 6.85571 15.3838C6.85571 14.3914 7.6602 13.5869 8.65259 13.5869C8.9224 13.5869 9.17832 13.6464 9.40796 13.7529V8.55178V8.12298L9.83175 8.05762L16.113 7.08887L16.6892 7ZM9.40796 15.1612V15.1293C9.30177 14.814 9.0037 14.5869 8.65259 14.5869C8.21249 14.5869 7.85571 14.9437 7.85571 15.3838C7.85571 15.8239 8.21249 16.1807 8.65259 16.1807C9.09269 16.1807 9.44946 15.8239 9.44946 15.3838C9.44946 15.3065 9.43846 15.2318 9.41794 15.1612H9.40796ZM15.6423 14.4463C15.6423 14.8864 15.2856 15.2432 14.8455 15.2432C14.4054 15.2432 14.0486 14.8864 14.0486 14.4463C14.0486 14.0062 14.4054 13.6494 14.8455 13.6494C15.2856 13.6494 15.6423 14.0062 15.6423 14.4463Z" fill="white"/>
</svg>
