<svg width="21" height="21" viewBox="0 0 21 21" fill="none" xmlns="http://www.w3.org/2000/svg">
<path d="M17.4521 3.39648V0.883984C17.4521 0.85637 17.4298 0.833984 17.4021 0.833984H0.814648C0.787033 0.833984 0.764648 0.85637 0.764648 0.883984V17.659C0.764648 17.6866 0.787034 17.709 0.814648 17.709H3.20215M3.20215 17.709V20.159C3.20215 20.1866 3.22453 20.209 3.25215 20.209H20.0271C20.0548 20.209 20.0771 20.1866 20.0771 20.159V3.44648C20.0771 3.41887 20.0548 3.39648 20.0271 3.39648H3.25215C3.22453 3.39648 3.20215 3.41887 3.20215 3.44648V17.709Z" stroke="#5C6096"/>
<path fill-rule="evenodd" clip-rule="evenodd" d="M16.2603 7V7.58303V13.2705V14.333H16.2099C16.2122 14.3705 16.2134 14.4083 16.2134 14.4463C16.2134 15.4387 15.4089 16.2432 14.4165 16.2432C13.4241 16.2432 12.6196 15.4387 12.6196 14.4463C12.6196 13.4539 13.4241 12.6494 14.4165 12.6494C14.7215 12.6494 15.0087 12.7254 15.2603 12.8594V8.16605L9.979 8.98057V14.4268V14.9981C10.0062 15.1223 10.0205 15.2514 10.0205 15.3838C10.0205 16.3762 9.21602 17.1807 8.22363 17.1807C7.23125 17.1807 6.42676 16.3762 6.42676 15.3838C6.42676 14.3914 7.23125 13.5869 8.22363 13.5869C8.49344 13.5869 8.74936 13.6464 8.979 13.7529V8.55178V8.12298L9.40279 8.05762L15.684 7.08887L16.2603 7ZM8.979 15.1612V15.1293C8.87281 14.814 8.57474 14.5869 8.22363 14.5869C7.78353 14.5869 7.42676 14.9437 7.42676 15.3838C7.42676 15.8239 7.78353 16.1807 8.22363 16.1807C8.66373 16.1807 9.02051 15.8239 9.02051 15.3838C9.02051 15.3065 9.00951 15.2318 8.98898 15.1612H8.979ZM15.2134 14.4463C15.2134 14.8864 14.8566 15.2432 14.4165 15.2432C13.9764 15.2432 13.6196 14.8864 13.6196 14.4463C13.6196 14.0062 13.9764 13.6494 14.4165 13.6494C14.8566 13.6494 15.2134 14.0062 15.2134 14.4463Z" fill="#5C6096"/>
</svg>
