<svg width="18" height="16" viewBox="0 0 18 16" fill="none" xmlns="http://www.w3.org/2000/svg">
<path d="M9.58297 2.03739L9.58336 2.037C10.3944 1.23065 11.4934 0.777545 12.6395 0.777545C13.7854 0.777545 14.8842 1.23046 15.6952 2.03649C16.5035 2.84539 16.9568 3.9405 16.956 5.08159C16.9553 6.22287 16.5004 7.31757 15.6908 8.12546C15.6907 8.12551 15.6907 8.12557 15.6906 8.12562L9.04395 14.7513L2.39711 8.12546L2.39705 8.1254C1.58668 7.31785 1.13159 6.22281 1.13141 5.08126C1.13122 3.93971 1.58595 2.84452 2.39606 2.03671C3.20623 1.22884 4.30549 0.7746 5.45211 0.774414C6.5987 0.774229 7.69809 1.2281 8.50851 2.03566C8.50853 2.03568 8.50855 2.0357 8.50857 2.03572L8.69317 2.21974L9.04532 2.57077L9.39831 2.22059L9.58297 2.03739Z" fill="#2651D2" stroke="#2651D2"/>
</svg>
