<svg width="18" height="16" viewBox="0 0 18 16" fill="none" xmlns="http://www.w3.org/2000/svg">
<path d="M9.58297 1.90653L9.58336 1.90614C10.3944 1.09979 11.4934 0.646685 12.6395 0.646685C13.7854 0.646685 14.8842 1.0996 15.6952 1.90563C16.5035 2.71453 16.9568 3.80964 16.956 4.95073C16.9553 6.09201 16.5004 7.18671 15.6908 7.9946C15.6907 7.99465 15.6907 7.99471 15.6906 7.99476L9.04395 14.6204L2.39711 7.9946L2.39705 7.99454C1.58668 7.18699 1.13159 6.09195 1.13141 4.9504C1.13122 3.80885 1.58595 2.71366 2.39606 1.90585C3.20623 1.09798 4.30549 0.64374 5.45211 0.643555C6.5987 0.643369 7.69809 1.09724 8.50851 1.9048C8.50853 1.90482 8.50855 1.90484 8.50857 1.90486L8.69317 2.08888L9.04532 2.43991L9.39831 2.08973L9.58297 1.90653Z" stroke="#5C6096"/>
</svg>
