<svg width="23" height="21" viewBox="0 0 23 21" fill="none" xmlns="http://www.w3.org/2000/svg">
<path d="M12.1279 3.08185L12.1283 3.08146C13.2371 1.97902 14.7396 1.35963 16.3063 1.35963C17.8729 1.35963 19.3751 1.97883 20.4839 3.08097C21.5892 4.18693 22.209 5.6844 22.208 7.24486C22.207 8.8056 21.585 10.3025 20.4779 11.4071L11.5906 20.2662C11.5741 20.2827 11.5514 20.2922 11.5274 20.2922C11.5034 20.2922 11.4807 20.2827 11.4642 20.2662L2.57684 11.407L2.57678 11.4069C1.46877 10.3028 0.846446 8.80541 0.846191 7.24435C0.845937 5.68328 1.46778 4.18574 2.57542 3.08124C3.68312 1.97668 5.18597 1.35572 6.75343 1.35547C8.32086 1.35522 9.82388 1.97567 10.9319 3.07983C10.932 3.07985 10.932 3.07987 10.932 3.07989L11.1774 3.32449L11.5295 3.67552L11.8825 3.32533L12.1279 3.08185Z" fill="white" stroke="white"/>
</svg>
