<svg width="21" height="15" viewBox="0 0 21 15" fill="none" xmlns="http://www.w3.org/2000/svg">
<path d="M1.46289 1.39062H12.7754" stroke="white" stroke-linecap="round"/>
<path d="M1.46289 7.07812H12.7754" stroke="white" stroke-linecap="round"/>
<path d="M1.46289 12.9531H8.83789" stroke="white" stroke-linecap="round"/>
<path fill-rule="evenodd" clip-rule="evenodd" d="M15.7441 0.890625H15.2441V1.39062V9.92917C14.7462 9.5056 14.1009 9.25 13.396 9.25C11.8198 9.25 10.542 10.5278 10.542 12.104C10.542 13.6802 11.8198 14.958 13.396 14.958C14.9722 14.958 16.25 13.6802 16.25 12.104C16.25 12.0423 16.248 11.9811 16.2441 11.9204V1.89062H20.1191C20.3953 1.89062 20.6191 1.66677 20.6191 1.39062C20.6191 1.11448 20.3953 0.890625 20.1191 0.890625H15.7441ZM15.2442 11.9562C15.2443 11.9758 15.2455 11.995 15.2478 12.0139C15.2492 12.0438 15.25 12.0738 15.25 12.104C15.25 13.1279 14.4199 13.958 13.396 13.958C12.372 13.958 11.542 13.1279 11.542 12.104C11.542 11.0801 12.372 10.25 13.396 10.25C14.3702 10.25 15.1689 11.0014 15.2442 11.9562Z" fill="white"/>
</svg>
