<svg width="21" height="15" viewBox="0 0 21 15" fill="none" xmlns="http://www.w3.org/2000/svg">
<path d="M0.920898 0.798828H12.2334" stroke="#5C6096" stroke-linecap="round"/>
<path d="M0.920898 6.48633H12.2334" stroke="#5C6096" stroke-linecap="round"/>
<path d="M0.920898 12.3613H8.2959" stroke="#5C6096" stroke-linecap="round"/>
<path fill-rule="evenodd" clip-rule="evenodd" d="M15.2021 0.298828H14.7021V0.798828V9.33737C14.2042 8.9138 13.5589 8.6582 12.854 8.6582C11.2778 8.6582 10 9.93597 10 11.5122C10 13.0884 11.2778 14.3662 12.854 14.3662C14.4302 14.3662 15.708 13.0884 15.708 11.5122C15.708 11.4505 15.706 11.3893 15.7021 11.3286V1.29883H19.5771C19.8533 1.29883 20.0771 1.07497 20.0771 0.798828C20.0771 0.522686 19.8533 0.298828 19.5771 0.298828H15.2021ZM14.7022 11.3644C14.7023 11.384 14.7035 11.4032 14.7058 11.4222C14.7072 11.452 14.708 11.482 14.708 11.5122C14.708 12.5361 13.8779 13.3662 12.854 13.3662C11.8301 13.3662 11 12.5361 11 11.5122C11 10.4883 11.8301 9.6582 12.854 9.6582C13.8282 9.6582 14.6269 10.4096 14.7022 11.3644Z" fill="#5C6096"/>
</svg>
