<svg width="21" height="15" viewBox="0 0 21 15" fill="none" xmlns="http://www.w3.org/2000/svg">
<path d="M0.961914 0.642578H12.2744" stroke="#5C6096" stroke-linecap="round"/>
<path d="M0.961914 6.33008H12.2744" stroke="#5C6096" stroke-linecap="round"/>
<path d="M0.961914 12.2051H8.33691" stroke="#5C6096" stroke-linecap="round"/>
<path fill-rule="evenodd" clip-rule="evenodd" d="M15.2432 0.142578H14.7432V0.642578V9.18112C14.2452 8.75755 13.6 8.50195 12.895 8.50195C11.3188 8.50195 10.041 9.77972 10.041 11.3559C10.041 12.9321 11.3188 14.2099 12.895 14.2099C14.4712 14.2099 15.749 12.9321 15.749 11.3559C15.749 11.2943 15.747 11.233 15.7432 11.1723V1.14258H19.6182C19.8943 1.14258 20.1182 0.91872 20.1182 0.642578C20.1182 0.366436 19.8943 0.142578 19.6182 0.142578H15.2432ZM14.7432 11.2082C14.7433 11.2277 14.7445 11.247 14.7468 11.2659C14.7483 11.2957 14.749 11.3257 14.749 11.3559C14.749 12.3799 13.9189 13.2099 12.895 13.2099C11.8711 13.2099 11.041 12.3799 11.041 11.3559C11.041 10.332 11.8711 9.50195 12.895 9.50195C13.8692 9.50195 14.6679 10.2533 14.7432 11.2082Z" fill="#5C6096"/>
</svg>
