<svg width="21" height="15" viewBox="0 0 21 15" fill="none" xmlns="http://www.w3.org/2000/svg">
<path d="M1.34985 0.798828H12.6624" stroke="white" stroke-linecap="round"/>
<path d="M1.34985 6.48633H12.6624" stroke="white" stroke-linecap="round"/>
<path d="M1.34985 12.3613H8.72485" stroke="white" stroke-linecap="round"/>
<path fill-rule="evenodd" clip-rule="evenodd" d="M15.6311 0.298828H15.1311V0.798828V9.33737C14.6332 8.9138 13.9879 8.6582 13.2829 8.6582C11.7067 8.6582 10.429 9.93597 10.429 11.5122C10.429 13.0884 11.7067 14.3662 13.2829 14.3662C14.8591 14.3662 16.1369 13.0884 16.1369 11.5122C16.1369 11.4505 16.135 11.3893 16.1311 11.3286V1.29883H20.0061C20.2822 1.29883 20.5061 1.07497 20.5061 0.798828C20.5061 0.522686 20.2822 0.298828 20.0061 0.298828H15.6311ZM15.1311 11.3644C15.1312 11.384 15.1325 11.4032 15.1348 11.4222C15.1362 11.452 15.1369 11.482 15.1369 11.5122C15.1369 12.5361 14.3069 13.3662 13.2829 13.3662C12.259 13.3662 11.429 12.5361 11.429 11.5122C11.429 10.4883 12.259 9.6582 13.2829 9.6582C14.2571 9.6582 15.0558 10.4096 15.1311 11.3644Z" fill="white"/>
</svg>
