<svg width="23" height="23" viewBox="0 0 23 23" fill="none" xmlns="http://www.w3.org/2000/svg">
<path d="M11.0507 22.3398C17.1046 22.3398 22.0505 17.3939 22.0505 11.34C22.0505 5.28607 17.1046 0.34008 11.0507 0.34008C4.99677 0.300512 0.0507812 5.2465 0.0507812 11.3004C0.0507812 17.3939 4.99677 22.3398 11.0507 22.3398ZM6.30251 10.5882H10.3384V6.55224C10.3384 6.15656 10.655 5.80045 11.0902 5.80045C11.5255 5.80045 11.842 6.117 11.842 6.55224V10.5882H15.8779C16.2736 10.5882 16.6297 10.9047 16.6297 11.34C16.6297 11.7752 16.3132 12.0918 15.8779 12.0918H11.8025V16.1277C11.8025 16.5234 11.4859 16.8795 11.0507 16.8795C10.6154 16.8795 10.2989 16.5629 10.2989 16.1277V12.0522H6.30251C5.90683 12.0522 5.55072 11.7356 5.55072 11.3004C5.55072 10.8651 5.86726 10.5882 6.30251 10.5882Z" fill="url(#paint0_linear)"/>
<defs>
<linearGradient id="paint0_linear" x1="11.0507" y1="0.339844" x2="11.0507" y2="22.3398" gradientUnits="userSpaceOnUse">
<stop stop-color="#2A62EB"/>
<stop offset="1" stop-color="#6633F5"/>
</linearGradient>
</defs>
</svg>
