<svg width="23" height="23" viewBox="0 0 23 23" fill="none" xmlns="http://www.w3.org/2000/svg">
<path d="M11.3417 22.4258C17.3956 22.4258 22.3416 17.4798 22.3416 11.4259C22.3416 5.37201 17.3956 0.426017 11.3417 0.426017C5.28779 0.386449 0.341797 5.33244 0.341797 11.3863C0.341797 17.4798 5.28779 22.4258 11.3417 22.4258ZM6.59353 10.6741H10.6295V6.63818C10.6295 6.2425 10.946 5.88639 11.3812 5.88639C11.8165 5.88639 12.133 6.20293 12.133 6.63818V10.6741H16.169C16.5646 10.6741 16.9208 10.9907 16.9208 11.4259C16.9208 11.8611 16.6042 12.1777 16.169 12.1777H12.0935V16.2136C12.0935 16.6093 11.7769 16.9654 11.3417 16.9654C10.9064 16.9654 10.5899 16.6489 10.5899 16.2136V12.1381H6.59353C6.19785 12.1381 5.84174 11.8216 5.84174 11.3863C5.84174 10.9511 6.15828 10.6741 6.59353 10.6741Z" fill="url(#paint0_linear)"/>
<defs>
<linearGradient id="paint0_linear" x1="11.3417" y1="0.425781" x2="11.3417" y2="22.4258" gradientUnits="userSpaceOnUse">
<stop stop-color="#2057DC"/>
<stop offset="1" stop-color="#492C9A"/>
</linearGradient>
</defs>
</svg>
