<svg width="23" height="21" viewBox="0 0 23 21" fill="none" xmlns="http://www.w3.org/2000/svg">
<path d="M11.6843 16.5918C9.19067 16.5918 7.16214 18.4088 7.16214 20.6423C7.16214 20.7956 7.28695 20.92 7.44073 20.92H15.9274C16.0812 20.92 16.206 20.7956 16.206 20.6423C16.206 18.4091 14.1775 16.5918 11.6843 16.5918Z" fill="white"/>
<path d="M13.9921 12.7354C13.9921 11.4287 12.9253 10.3652 11.6145 10.3652C10.3032 10.3652 9.23676 11.4287 9.23676 12.7354C9.23676 14.0421 10.3032 15.106 11.6145 15.106C12.9253 15.106 13.9921 14.0425 13.9921 12.7354Z" fill="white"/>
<path d="M11.6136 6.90137C8.6746 6.90137 6.28391 9.28487 6.28391 12.2145C6.28391 13.7297 6.93544 15.1764 8.07173 16.1843C8.18725 16.2865 8.36295 16.2758 8.4651 16.1614C8.56725 16.0466 8.55722 15.8711 8.44207 15.7689C7.42465 14.8665 6.84109 13.5709 6.84109 12.2142C6.84109 9.59072 8.98217 7.45642 11.6136 7.45642C14.245 7.45642 16.3861 9.59072 16.3861 12.2142C16.3861 13.5709 15.8025 14.8665 14.7847 15.7689C14.6699 15.8707 14.6595 16.0466 14.7617 16.1614C14.8166 16.2228 14.8932 16.2543 14.9701 16.2543C15.0362 16.2543 15.1019 16.231 15.1554 16.1843C16.2917 15.1764 16.9432 13.7297 16.9432 12.2145C16.9432 9.28487 14.5522 6.90137 11.6136 6.90137Z" fill="white"/>
<path d="M11.6134 3.69434C6.90077 3.69434 3.06696 7.51601 3.06696 12.2138C3.06696 14.4262 3.91351 16.5224 5.45097 18.1164C5.55758 18.2268 5.73402 18.2305 5.84471 18.1242C5.95578 18.0179 5.95912 17.8421 5.85251 17.7313C4.41535 16.241 3.62377 14.2814 3.62377 12.2134C3.62377 7.82223 7.20759 4.24939 11.6131 4.24939C16.0186 4.24939 19.6024 7.82186 19.6024 12.2134C19.6024 14.2822 18.8101 16.2424 17.3721 17.7328C17.2652 17.8432 17.2689 18.0187 17.3799 18.1253C17.4342 18.1775 17.5033 18.2031 17.5731 18.2031C17.6459 18.2031 17.7195 18.1746 17.7737 18.1179C19.3126 16.5235 20.1599 14.4266 20.1599 12.2138C20.1599 7.51638 16.3261 3.69434 11.6134 3.69434Z" fill="white"/>
<path d="M11.6136 0.982422C5.40061 0.982422 0.346191 6.02085 0.346191 12.2142C0.346191 15.279 1.56197 18.1428 3.76991 20.2767C3.88024 20.3841 4.05631 20.3811 4.16403 20.2708C4.27101 20.1604 4.26841 19.9849 4.15771 19.8779C2.05935 17.8491 0.903377 15.1272 0.903377 12.2138C0.903377 6.32744 5.70818 1.53785 11.6136 1.53785C17.519 1.53785 22.3238 6.32744 22.3238 12.2142C22.3238 15.1276 21.1682 17.8499 19.0691 19.879C18.9588 19.9857 18.9558 20.1616 19.0632 20.2719C19.1174 20.3278 19.1906 20.3563 19.263 20.3563C19.3329 20.3563 19.4031 20.3304 19.4569 20.2778C21.6645 18.1428 22.8806 15.2794 22.8806 12.2146C22.881 6.02122 17.8266 0.982422 11.6136 0.982422Z" fill="white"/>
</svg>
