<svg width="19" height="15" viewBox="0 0 19 15" fill="none" xmlns="http://www.w3.org/2000/svg">
<path d="M3.49496 3.10694H1.32373C1.04759 3.10694 0.82373 3.3308 0.82373 3.60694V10.9905C0.82373 11.2666 1.04759 11.4905 1.32373 11.4905H3.49496M3.49496 3.10694V11.4905M3.49496 3.10694L8.78642 0.678668C9.11764 0.526673 9.49496 0.768678 9.49496 1.1331V4.44256M3.49496 11.4905L8.75936 14.303C9.09242 14.4809 9.49496 14.2396 9.49496 13.862V10.2782M9.49496 4.44256H10.4539C10.73 4.44256 10.9539 4.66641 10.9539 4.94256V9.77817C10.9539 10.0543 10.73 10.2782 10.4539 10.2782H9.49496M9.49496 4.44256V10.2782" stroke="white"/>
<rect x="13.0085" y="2.7373" width="0.80137" height="9.26712" rx="0.400685" fill="white"/>
<rect x="15.5156" y="1.50391" width="0.80137" height="11.774" rx="0.400685" fill="white"/>
<rect x="18.0225" y="0.662109" width="0.80137" height="13.4795" rx="0.400685" fill="white"/>
</svg>
