<svg width="20" height="15" viewBox="0 0 20 15" fill="none" xmlns="http://www.w3.org/2000/svg">
<path d="M3.80209 3.2046H1.63086C1.35472 3.2046 1.13086 3.42845 1.13086 3.7046V11.0882C1.13086 11.3643 1.35472 11.5882 1.63086 11.5882H3.80209M3.80209 3.2046V11.5882M3.80209 3.2046L9.09355 0.776324C9.42477 0.624329 9.80209 0.866334 9.80209 1.23076V4.54021M3.80209 11.5882L9.06649 14.4006C9.39955 14.5786 9.80209 14.3372 9.80209 13.9596V10.3758M9.80209 4.54021H10.761C11.0371 4.54021 11.261 4.76407 11.261 5.04021V9.87583C11.261 10.152 11.0371 10.3758 10.761 10.3758H9.80209M9.80209 4.54021V10.3758" stroke="#C4C4C4"/>
<rect x="13.3157" y="2.83496" width="0.80137" height="9.26712" rx="0.400685" fill="#C4C4C4"/>
<rect x="15.8228" y="1.60156" width="0.80137" height="11.774" rx="0.400685" fill="#C4C4C4"/>
<rect x="18.3296" y="0.759766" width="0.80137" height="13.4795" rx="0.400685" fill="#C4C4C4"/>
</svg>
